<svg xmlns="http://www.w3.org/2000/svg" width="1024" height="1024" viewBox="0 0 1024 1024" version="1.1"><path d="M 0 512.001 L 0 1024.002 512.250 1023.751 L 1024.500 1023.500 1024.751 511.750 L 1025.002 0 512.501 0 L 0 0 0 512.001 M 0.496 512.500 L 0.496 1024.500 0.750 768.168 L 1.004 511.836 0.750 256.168 L 0.496 0.500 0.496 512.500 M 416.324 155.377 L 412.148 156.745 408.671 158.894 L 405.193 161.044 401.484 165.149 L 397.775 169.255 395.778 173.769 L 393.781 178.283 385.026 202.892 L 376.272 227.500 367.191 255.168 L 358.111 282.837 355.054 288.894 L 351.996 294.951 349.248 296.366 L 346.500 297.781 329.500 301.968 L 312.500 306.155 299 310.620 L 285.500 315.086 274.354 320.506 L 263.209 325.926 258.180 330.824 L 253.152 335.722 251.981 340.072 L 250.810 344.421 251.990 348.361 L 253.170 352.301 258.342 357.472 L 263.513 362.644 272.746 367.265 L 281.978 371.887 294.739 376.042 L 307.500 380.197 322.129 383.559 L 336.757 386.920 351.629 389.425 L 366.500 391.929 382 393.929 L 397.500 395.928 413.500 397.433 L 429.500 398.937 448.500 400.163 L 467.500 401.389 513 401.395 L 558.500 401.400 576 400.173 L 593.500 398.947 610 397.422 L 626.500 395.898 645 393.405 L 663.500 390.912 678.887 387.892 L 694.275 384.873 705.414 381.980 L 716.554 379.088 727.027 375.446 L 737.500 371.804 745.986 367.652 L 754.472 363.500 760.143 358 L 765.815 352.500 767.066 348.250 L 768.317 344 767.147 340.095 L 765.977 336.190 761.598 331.345 L 757.220 326.500 751.662 323.160 L 746.104 319.819 737.025 315.905 L 727.945 311.990 716.222 308.419 L 704.500 304.847 687.693 300.947 L 670.887 297.046 668.038 295.363 L 665.189 293.680 663.166 290.081 L 661.143 286.482 650.516 255.491 L 639.888 224.500 630.891 199 L 621.894 173.500 619.467 169.355 L 617.039 165.211 613.877 162.550 L 610.715 159.889 605.607 157.257 L 600.500 154.625 593.500 154.661 L 586.500 154.696 577 158.280 L 567.500 161.863 551.321 168.915 L 535.142 175.966 527.321 178.688 L 519.500 181.410 509.500 181.388 L 499.500 181.365 490.500 178.068 L 481.500 174.770 464.635 167.338 L 447.771 159.905 440.135 157.402 L 432.500 154.898 426.500 154.453 L 420.500 154.009 416.324 155.377 M 306.554 423.898 L 303.232 430.500 300.227 439.500 L 297.223 448.500 295.611 457.926 L 294 467.352 294 481.500 L 294 495.648 295.611 505.074 L 297.223 514.500 300.213 523.500 L 303.202 532.500 307.827 541.500 L 312.452 550.500 319.649 560.061 L 326.845 569.622 340.423 582.636 L 354 595.650 354 598.302 L 354 600.955 342.406 633.571 L 330.812 666.187 331.443 669.550 L 332.074 672.913 334.672 674.957 L 337.270 677 340.355 677 L 343.441 677 384.971 654.316 L 426.500 631.631 429.429 630.153 L 432.358 628.675 443.929 630.855 L 455.500 633.035 462.500 634.036 L 469.500 635.038 485.500 635.656 L 501.500 636.273 513.500 635.103 L 525.500 633.932 538 631.382 L 550.500 628.831 563.977 624.344 L 577.453 619.856 588.477 614.595 L 599.500 609.333 606.474 605.040 L 613.448 600.747 620.974 595.186 L 628.500 589.625 638.866 579.562 L 649.233 569.500 657.064 559.089 L 664.895 548.678 669.864 538.589 L 674.834 528.500 677.478 520.004 L 680.123 511.508 681.555 502.004 L 682.988 492.500 682.994 483.974 L 683 475.448 681.961 466.974 L 680.922 458.500 678.435 449 L 675.947 439.500 672.484 432.168 L 669.021 424.836 666.260 425.419 L 663.500 426.002 650 427.972 L 636.500 429.942 624 431.440 L 611.500 432.937 592 434.470 L 572.500 436.002 545.500 437.055 L 518.500 438.109 496.500 437.515 L 474.500 436.922 454 435.908 L 433.500 434.895 417 433.446 L 400.500 431.997 384 429.931 L 367.500 427.865 347 424.411 L 326.500 420.958 318.188 419.127 L 309.877 417.295 306.554 423.898 M 161.716 722.144 L 155.932 722.937 151.216 725.020 L 146.500 727.102 143.128 730.301 L 139.756 733.500 137.900 737.500 L 136.044 741.500 136.022 747.628 L 136 753.756 137.422 757.128 L 138.844 760.500 142.172 763.699 L 145.500 766.898 150.016 768.892 L 154.532 770.886 165.516 773.827 L 176.500 776.769 179.119 777.810 L 181.737 778.851 183.869 781.560 L 186 784.270 186 787.185 L 186 790.099 184.544 792.915 L 183.088 795.730 179.543 797.412 L 175.999 799.094 171.249 799.655 L 166.500 800.216 162.295 799.082 L 158.091 797.947 155.156 795.477 L 152.220 793.007 150.601 788.962 L 148.983 784.916 141.241 785.208 L 133.500 785.500 133.776 788.912 L 134.052 792.324 136.730 797.245 L 139.408 802.165 142.454 804.743 L 145.500 807.320 151 809.910 L 156.500 812.500 169 812.500 L 181.500 812.500 186.051 810.394 L 190.602 808.289 194.458 804.903 L 198.314 801.517 200.135 797.509 L 201.956 793.500 201.978 787.066 L 202 780.631 199.901 776.296 L 197.802 771.960 193.478 768.985 L 189.154 766.010 181.327 763.605 L 173.500 761.200 166.722 759.481 L 159.944 757.763 156.722 755.598 L 153.500 753.433 152.607 749.854 L 151.714 746.274 152.365 743.682 L 153.016 741.090 156.529 738.410 L 160.043 735.730 166.771 735.302 L 173.500 734.873 176.710 736.897 L 179.919 738.922 181.980 742.961 L 184.041 747 191.520 747 L 199 747 199 744.468 L 199 741.936 197.451 738.218 L 195.902 734.500 192.201 730.665 L 188.500 726.831 184.953 724.999 L 181.407 723.167 177.953 722.572 L 174.500 721.977 171 721.665 L 167.500 721.352 161.716 722.144 M 400.835 722.708 L 400.500 723.500 400.790 767.793 L 401.080 812.086 408.290 811.793 L 415.500 811.500 415.500 767 L 415.500 722.500 408.335 722.208 L 401.170 721.916 400.835 722.708 M 477.458 723.250 L 476.978 724.500 477.239 768 L 477.500 811.500 484.500 811.500 L 491.500 811.500 492 790 L 492.500 768.500 494.454 765.614 L 496.409 762.727 499.672 761.364 L 502.936 760 506.518 760 L 510.099 760 512.855 761.425 L 515.611 762.850 517.029 765.675 L 518.447 768.500 518.973 790 L 519.500 811.500 526.500 811.500 L 533.500 811.500 533.500 787 L 533.500 762.500 531.347 758.500 L 529.195 754.500 526.834 752.298 L 524.473 750.095 520.768 748.548 L 517.064 747 511.348 747 L 505.631 747 501.195 749.148 L 496.758 751.295 494.629 754.898 L 492.500 758.500 492.227 740.250 L 491.955 722 484.946 722 L 477.937 722 477.458 723.250 M 570.284 723.897 L 565.068 725.827 560.544 729.076 L 556.020 732.325 552.456 737.500 L 548.891 742.675 547.053 748.587 L 545.214 754.500 544.549 762 L 543.884 769.500 545.331 777.577 L 546.777 785.653 549.571 791.577 L 552.364 797.500 557.635 802.661 L 562.906 807.821 568.703 810.056 L 574.500 812.291 583.098 812.761 L 591.697 813.230 597.598 811.555 L 603.500 809.879 608.651 806.386 L 613.803 802.892 616.355 799.196 L 618.907 795.500 620.454 791.782 L 622 788.064 622 786.032 L 622 784 614.750 784.033 L 607.500 784.067 604.500 789.240 L 601.500 794.414 596.842 796.795 L 592.184 799.175 585.758 799.126 L 579.332 799.077 576.416 797.977 L 573.500 796.877 570.165 793.689 L 566.829 790.500 565.259 787.500 L 563.688 784.500 562.356 779.500 L 561.024 774.500 561.012 766.432 L 561 758.363 562.582 753.036 L 564.164 747.710 566.690 743.892 L 569.217 740.073 573.850 737.831 L 578.483 735.588 584.991 735.661 L 591.500 735.733 595 737.219 L 598.500 738.704 601.728 742.019 L 604.955 745.334 606.069 748.709 L 607.183 752.084 614.341 751.792 L 621.500 751.500 621.271 747.674 L 621.042 743.848 618.300 738.810 L 615.558 733.772 611.496 730.443 L 607.435 727.115 602.467 724.889 L 597.500 722.663 586.500 722.314 L 575.500 721.966 570.284 723.897 M 219 739.456 L 219 748 214 748 L 209 748 209 754 L 209 760 214 760 L 219 760 219 779.684 L 219 799.369 221.060 803.624 L 223.120 807.880 227.456 809.979 L 231.792 812.078 241.146 811.789 L 250.500 811.500 250.500 806 L 250.500 800.500 244.504 800.193 L 238.507 799.885 236.254 797.768 L 234 795.651 234 777.866 L 234 760.081 242.250 759.790 L 250.500 759.500 250.500 754 L 250.500 748.500 242.290 748.210 L 234.080 747.920 233.790 739.710 L 233.500 731.500 226.250 731.206 L 219 730.912 219 739.456 M 435 739.448 L 435 747.895 429.750 748.198 L 424.500 748.500 424.500 754 L 424.500 759.500 429.114 759.799 L 433.728 760.098 434.209 779.799 L 434.689 799.500 436.749 803.500 L 438.810 807.500 442.155 809.471 L 445.500 811.443 455.703 811.833 L 465.906 812.223 466.479 809.862 L 467.053 807.500 466.755 804 L 466.457 800.500 459.776 800 L 453.096 799.500 451.970 798.372 L 450.845 797.245 450.019 793.585 L 449.194 789.925 449.052 775.004 L 448.911 760.082 457.205 759.791 L 465.500 759.500 465.500 754 L 465.500 748.500 457.250 748.210 L 449 747.919 449 739.460 L 449 731 442 731 L 435 731 435 739.448 M 277.766 748.645 L 273.031 750.281 269.234 753.532 L 265.436 756.782 262.686 761.835 L 259.936 766.888 259.141 773.496 L 258.345 780.103 259.186 786.302 L 260.027 792.500 262.577 797.730 L 265.127 802.959 268.814 806 L 272.500 809.041 277.788 811.020 L 283.075 813 289.356 813 L 295.637 813 300.929 811.429 L 306.221 809.857 312.110 804.129 L 318 798.402 318 796.201 L 318 794 310.871 794 L 303.742 794 299.868 797.500 L 295.994 801 290.732 801 L 285.469 801 281.984 799.176 L 278.500 797.352 276.250 792.964 L 274 788.576 274 786.307 L 274 784.038 296.250 783.769 L 318.500 783.500 318.804 777.625 L 319.107 771.749 317.410 766.352 L 315.712 760.954 311.734 756.435 L 307.756 751.916 303.628 749.779 L 299.500 747.642 291 747.325 L 282.500 747.008 277.766 748.645 M 346.385 748.561 L 342.271 750.076 338.265 753.505 L 334.259 756.934 332.577 760.478 L 330.896 764.022 331.507 765.011 L 332.118 766 338.599 766 L 345.080 766 349.002 761.877 L 352.924 757.754 359.006 758.194 L 365.089 758.634 367.654 761.199 L 370.219 763.765 370.722 768.226 L 371.225 772.687 362.846 773.278 L 354.468 773.870 347.278 775.505 L 340.087 777.140 336.886 779.320 L 333.684 781.500 331.732 784.136 L 329.780 786.772 329.273 791.267 L 328.767 795.763 329.940 799.319 L 331.114 802.875 333.228 805.563 L 335.342 808.251 340.421 810.616 L 345.500 812.980 350.500 812.985 L 355.500 812.989 359.315 811.929 L 363.130 810.870 366.948 807.052 L 370.765 803.235 371.637 807.367 L 372.509 811.500 379.004 811.500 L 385.500 811.500 385.769 789.179 L 386.039 766.857 384.977 762.915 L 383.916 758.974 380.803 755.428 L 377.689 751.882 373.595 749.750 L 369.500 747.619 360 747.332 L 350.500 747.046 346.385 748.561 M 652.404 748.769 L 647.307 750.589 643.353 753.721 L 639.398 756.853 636.716 761.780 L 634.034 766.708 633.045 773.682 L 632.056 780.657 633.085 787.048 L 634.114 793.440 636.774 798.325 L 639.433 803.211 642.966 806.126 L 646.500 809.041 652 811.116 L 657.500 813.192 666 812.779 L 674.500 812.365 679.089 810.310 L 683.679 808.255 687.467 804.467 L 691.255 800.679 693.326 796.089 L 695.398 791.500 695.792 781.500 L 696.185 771.500 694.113 766 L 692.041 760.500 689 756.814 L 685.959 753.127 680.310 750.363 L 674.662 747.600 666.081 747.274 L 657.500 746.949 652.404 748.769 M 730.274 749.093 L 726.049 751.185 723.774 754.842 L 721.500 758.500 721.196 753.206 L 720.892 747.911 714.196 748.206 L 707.500 748.500 707.500 780 L 707.500 811.500 714.500 811.500 L 721.500 811.500 722 789.500 L 722.500 767.500 723.780 765.260 L 725.059 763.021 727.980 761.510 L 730.901 760 734.228 760 L 737.555 760 739.770 761.551 L 741.985 763.103 743.242 765.301 L 744.500 767.500 745 789.500 L 745.500 811.500 752.720 811.793 L 759.940 812.086 760.582 809.530 L 761.224 806.973 760.645 801.737 L 760.066 796.500 760.697 781.583 L 761.327 766.666 763.913 763.798 L 766.500 760.931 770.233 760.337 L 773.967 759.744 776.935 760.973 L 779.903 762.202 781.701 764.851 L 783.500 767.500 784 789.500 L 784.500 811.500 791.500 811.500 L 798.500 811.500 798.500 787.500 L 798.500 763.500 796 758.507 L 793.500 753.513 789.255 750.571 L 785.010 747.628 779.111 747.202 L 773.212 746.775 769.686 747.939 L 766.161 749.102 761.891 753.734 L 757.622 758.366 757.244 757.233 L 756.867 756.100 754.762 753.425 L 752.657 750.749 748.579 748.896 L 744.500 747.044 739.500 747.023 L 734.500 747.002 730.274 749.093 M 834.907 749.324 L 830.500 751.649 828.307 754.887 L 826.115 758.126 825.807 753.313 L 825.500 748.500 818.736 748.204 L 811.972 747.908 812.236 779.704 L 812.500 811.500 819.500 811.500 L 826.500 811.500 827 788.828 L 827.500 766.156 829.910 763.593 L 832.320 761.031 835.582 760.419 L 838.844 759.807 841.956 760.490 L 845.068 761.174 846.784 763.789 L 848.500 766.404 849 788.952 L 849.500 811.500 857 811.500 L 864.500 811.500 865 788.770 L 865.500 766.041 868.054 763.489 L 870.608 760.938 874.287 760.341 L 877.967 759.744 881.031 761.013 L 884.094 762.282 885.790 765.391 L 887.485 768.500 887.747 789 L 888.009 809.500 888.005 810.794 L 888 812.088 895.250 811.794 L 902.500 811.500 902.500 787.470 L 902.500 763.439 899.945 758.479 L 897.391 753.518 893.350 750.678 L 889.309 747.838 883.300 747.294 L 877.292 746.749 873.726 747.925 L 870.161 749.102 866.060 753.551 L 861.959 758 861.479 758 L 861 758 861 756.687 L 861 755.374 858.250 752.740 L 855.500 750.106 851.782 748.553 L 848.064 747 843.689 747 L 839.315 747 834.907 749.324 M 285.500 758.900 L 282.500 759.656 280.222 761.078 L 277.945 762.500 275.972 766.566 L 274 770.631 274 772.316 L 274 774 289.131 774 L 304.262 774 303.677 770.394 L 303.091 766.788 301.532 764.408 L 299.972 762.028 297.736 760.588 L 295.500 759.148 292 758.646 L 288.500 758.144 285.500 758.900 M 657 760.752 L 653.500 762.500 651.171 767.193 L 648.843 771.886 648.896 780.075 L 648.950 788.265 651.080 792.666 L 653.211 797.067 657.066 799.033 L 660.920 801 664.812 801 L 668.704 801 672.010 798.750 L 675.316 796.500 677.408 793.674 L 679.500 790.847 679.500 779.996 L 679.500 769.144 677.408 766.322 L 675.316 763.500 672.010 761.250 L 668.704 759 664.602 759.002 L 660.500 759.003 657 760.752 M 354.787 784.396 L 349.073 785.624 346.989 787.510 L 344.904 789.397 345.202 793.348 L 345.500 797.300 348.325 799.400 L 351.150 801.500 355.825 801.420 L 360.500 801.340 363.794 799.622 L 367.088 797.903 369.040 794.701 L 370.993 791.500 370.996 787.250 L 371 783 365.750 783.084 L 360.500 783.168 354.787 784.396" stroke="none" fill="#000d22" fill-rule="evenodd"/><path d="M 306.167 424.789 L 303.037 431.579 300.976 437.539 L 298.914 443.500 296.862 452.500 L 294.809 461.500 294.275 476.500 L 293.741 491.500 295.469 502.500 L 297.196 513.500 299.699 521.500 L 302.202 529.500 306.506 538.500 L 310.809 547.500 317.130 556.500 L 323.451 565.500 338.726 580.683 L 354 595.866 354 598.744 L 354 601.623 344.944 627.062 L 335.889 652.500 333.359 659.727 L 330.830 666.954 331.998 670.494 L 333.167 674.035 336.222 675.615 L 339.277 677.195 341.955 676.659 L 344.633 676.123 375.566 659.239 L 406.500 642.355 418.796 635.544 L 431.093 628.732 435.796 629.359 L 440.500 629.986 451.500 631.951 L 462.500 633.917 477.015 635.111 L 491.531 636.305 507.515 635.186 L 523.500 634.068 536 631.571 L 548.500 629.074 559.961 625.435 L 571.422 621.795 582.740 616.939 L 594.057 612.083 603.323 606.630 L 612.588 601.177 620.878 595.030 L 629.168 588.884 637.714 580.692 L 646.259 572.500 651.954 565.500 L 657.648 558.500 661.948 552.123 L 666.248 545.745 670.542 536.623 L 674.837 527.500 676.901 521.137 L 678.966 514.774 680.463 506.880 L 681.961 498.987 682.612 489.719 L 683.264 480.451 682.054 470.047 L 680.845 459.644 678.525 450.498 L 676.205 441.352 673.010 433.678 L 669.815 426.004 669.157 425.600 L 668.500 425.197 660.500 426.610 L 652.500 428.024 633.500 430.476 L 614.500 432.928 595.500 434.451 L 576.500 435.974 555 436.982 L 533.500 437.989 514 437.985 L 494.500 437.981 470 436.985 L 445.500 435.989 426.500 434.476 L 407.500 432.963 390.500 430.967 L 373.500 428.970 357.006 426.404 L 340.513 423.838 326.100 420.919 L 311.688 418 310.492 418 L 309.296 418 306.167 424.789" stroke="none" fill="#fafbfb" fill-rule="evenodd"/><path d="M 416.324 155.377 L 412.148 156.745 408.671 158.894 L 405.193 161.044 401.484 165.149 L 397.775 169.255 395.778 173.769 L 393.781 178.283 385.026 202.892 L 376.272 227.500 367.191 255.168 L 358.111 282.837 355.054 288.894 L 351.996 294.951 349.248 296.366 L 346.500 297.781 329.500 301.968 L 312.500 306.155 299 310.620 L 285.500 315.086 274.354 320.506 L 263.209 325.926 258.180 330.824 L 253.152 335.722 251.981 340.072 L 250.810 344.421 251.990 348.361 L 253.170 352.301 258.342 357.472 L 263.513 362.644 272.746 367.265 L 281.978 371.887 294.739 376.042 L 307.500 380.197 322.129 383.559 L 336.757 386.920 351.629 389.425 L 366.500 391.929 382 393.929 L 397.500 395.928 413.500 397.433 L 429.500 398.937 448.500 400.163 L 467.500 401.389 513 401.395 L 558.500 401.400 576 400.173 L 593.500 398.947 610 397.422 L 626.500 395.898 645 393.405 L 663.500 390.912 678.887 387.892 L 694.275 384.873 705.414 381.980 L 716.554 379.088 727.027 375.446 L 737.500 371.804 745.986 367.652 L 754.472 363.500 760.143 358 L 765.815 352.500 767.066 348.250 L 768.317 344 767.147 340.095 L 765.977 336.190 761.598 331.345 L 757.220 326.500 751.662 323.160 L 746.104 319.819 737.025 315.905 L 727.945 311.990 716.222 308.419 L 704.500 304.847 687.693 300.947 L 670.887 297.046 668.038 295.363 L 665.189 293.680 663.166 290.081 L 661.143 286.482 650.516 255.491 L 639.888 224.500 630.891 199 L 621.894 173.500 619.467 169.355 L 617.039 165.211 613.877 162.550 L 610.715 159.889 605.607 157.257 L 600.500 154.625 593.500 154.661 L 586.500 154.696 577 158.280 L 567.500 161.863 551.321 168.915 L 535.142 175.966 527.321 178.688 L 519.500 181.410 509.500 181.388 L 499.500 181.365 490.500 178.068 L 481.500 174.770 464.635 167.338 L 447.771 159.905 440.135 157.402 L 432.500 154.898 426.500 154.453 L 420.500 154.009 416.324 155.377 M 161.716 722.144 L 155.932 722.937 151.216 725.020 L 146.500 727.102 143.128 730.301 L 139.756 733.500 137.900 737.500 L 136.044 741.500 136.022 747.628 L 136 753.756 137.422 757.128 L 138.844 760.500 142.172 763.699 L 145.500 766.898 150.016 768.892 L 154.532 770.886 165.516 773.827 L 176.500 776.769 179.119 777.810 L 181.737 778.851 183.869 781.560 L 186 784.270 186 787.185 L 186 790.099 184.544 792.915 L 183.088 795.730 179.543 797.412 L 175.999 799.094 171.249 799.655 L 166.500 800.216 162.295 799.082 L 158.091 797.947 155.156 795.477 L 152.220 793.007 150.601 788.962 L 148.983 784.916 141.241 785.208 L 133.500 785.500 133.776 788.912 L 134.052 792.324 136.730 797.245 L 139.408 802.165 142.454 804.743 L 145.500 807.320 151 809.910 L 156.500 812.500 169 812.500 L 181.500 812.500 186.051 810.394 L 190.602 808.289 194.458 804.903 L 198.314 801.517 200.135 797.509 L 201.956 793.500 201.978 787.066 L 202 780.631 199.901 776.296 L 197.802 771.960 193.478 768.985 L 189.154 766.010 181.327 763.605 L 173.500 761.200 166.722 759.481 L 159.944 757.763 156.722 755.598 L 153.500 753.433 152.607 749.854 L 151.714 746.274 152.365 743.682 L 153.016 741.090 156.529 738.410 L 160.043 735.730 166.771 735.302 L 173.500 734.873 176.710 736.897 L 179.919 738.922 181.980 742.961 L 184.041 747 191.520 747 L 199 747 199 744.468 L 199 741.936 197.451 738.218 L 195.902 734.500 192.201 730.665 L 188.500 726.831 184.953 724.999 L 181.407 723.167 177.953 722.572 L 174.500 721.977 171 721.665 L 167.500 721.352 161.716 722.144 M 400.835 722.708 L 400.500 723.500 400.790 767.793 L 401.080 812.086 408.290 811.793 L 415.500 811.500 415.500 767 L 415.500 722.500 408.335 722.208 L 401.170 721.916 400.835 722.708 M 477.458 723.250 L 476.978 724.500 477.239 768 L 477.500 811.500 484.500 811.500 L 491.500 811.500 492 790 L 492.500 768.500 494.454 765.614 L 496.409 762.727 499.672 761.364 L 502.936 760 506.518 760 L 510.099 760 512.855 761.425 L 515.611 762.850 517.029 765.675 L 518.447 768.500 518.973 790 L 519.500 811.500 526.500 811.500 L 533.500 811.500 533.500 787 L 533.500 762.500 531.347 758.500 L 529.195 754.500 526.834 752.298 L 524.473 750.095 520.768 748.548 L 517.064 747 511.348 747 L 505.631 747 501.195 749.148 L 496.758 751.295 494.629 754.898 L 492.500 758.500 492.227 740.250 L 491.955 722 484.946 722 L 477.937 722 477.458 723.250 M 570.284 723.897 L 565.068 725.827 560.544 729.076 L 556.020 732.325 552.456 737.500 L 548.891 742.675 547.053 748.587 L 545.214 754.500 544.549 762 L 543.884 769.500 545.331 777.577 L 546.777 785.653 549.571 791.577 L 552.364 797.500 557.635 802.661 L 562.906 807.821 568.703 810.056 L 574.500 812.291 583.098 812.761 L 591.697 813.230 597.598 811.555 L 603.500 809.879 608.651 806.386 L 613.803 802.892 616.355 799.196 L 618.907 795.500 620.454 791.782 L 622 788.064 622 786.032 L 622 784 614.750 784.033 L 607.500 784.067 604.500 789.240 L 601.500 794.414 596.842 796.795 L 592.184 799.175 585.758 799.126 L 579.332 799.077 576.416 797.977 L 573.500 796.877 570.165 793.689 L 566.829 790.500 565.259 787.500 L 563.688 784.500 562.356 779.500 L 561.024 774.500 561.012 766.432 L 561 758.363 562.582 753.036 L 564.164 747.710 566.690 743.892 L 569.217 740.073 573.850 737.831 L 578.483 735.588 584.991 735.661 L 591.500 735.733 595 737.219 L 598.500 738.704 601.728 742.019 L 604.955 745.334 606.069 748.709 L 607.183 752.084 614.341 751.792 L 621.500 751.500 621.271 747.674 L 621.042 743.848 618.300 738.810 L 615.558 733.772 611.496 730.443 L 607.435 727.115 602.467 724.889 L 597.500 722.663 586.500 722.314 L 575.500 721.966 570.284 723.897 M 219 739.456 L 219 748 214 748 L 209 748 209 754 L 209 760 214 760 L 219 760 219 779.684 L 219 799.369 221.060 803.624 L 223.120 807.880 227.456 809.979 L 231.792 812.078 241.146 811.789 L 250.500 811.500 250.500 806 L 250.500 800.500 244.504 800.193 L 238.507 799.885 236.254 797.768 L 234 795.651 234 777.866 L 234 760.081 242.250 759.790 L 250.500 759.500 250.500 754 L 250.500 748.500 242.290 748.210 L 234.080 747.920 233.790 739.710 L 233.500 731.500 226.250 731.206 L 219 730.912 219 739.456 M 435 739.448 L 435 747.895 429.750 748.198 L 424.500 748.500 424.500 754 L 424.500 759.500 429.114 759.799 L 433.728 760.098 434.209 779.799 L 434.689 799.500 436.749 803.500 L 438.810 807.500 442.155 809.471 L 445.500 811.443 455.703 811.833 L 465.906 812.223 466.479 809.862 L 467.053 807.500 466.755 804 L 466.457 800.500 459.776 800 L 453.096 799.500 451.970 798.372 L 450.845 797.245 450.019 793.585 L 449.194 789.925 449.052 775.004 L 448.911 760.082 457.205 759.791 L 465.500 759.500 465.500 754 L 465.500 748.500 457.250 748.210 L 449 747.919 449 739.460 L 449 731 442 731 L 435 731 435 739.448 M 277.766 748.645 L 273.031 750.281 269.234 753.532 L 265.436 756.782 262.686 761.835 L 259.936 766.888 259.141 773.496 L 258.345 780.103 259.186 786.302 L 260.027 792.500 262.577 797.730 L 265.127 802.959 268.814 806 L 272.500 809.041 277.788 811.020 L 283.075 813 289.356 813 L 295.637 813 300.929 811.429 L 306.221 809.857 312.110 804.129 L 318 798.402 318 796.201 L 318 794 310.871 794 L 303.742 794 299.868 797.500 L 295.994 801 290.732 801 L 285.469 801 281.984 799.176 L 278.500 797.352 276.250 792.964 L 274 788.576 274 786.307 L 274 784.038 296.250 783.769 L 318.500 783.500 318.804 777.625 L 319.107 771.749 317.410 766.352 L 315.712 760.954 311.734 756.435 L 307.756 751.916 303.628 749.779 L 299.500 747.642 291 747.325 L 282.500 747.008 277.766 748.645 M 346.385 748.561 L 342.271 750.076 338.265 753.505 L 334.259 756.934 332.577 760.478 L 330.896 764.022 331.507 765.011 L 332.118 766 338.599 766 L 345.080 766 349.002 761.877 L 352.924 757.754 359.006 758.194 L 365.089 758.634 367.654 761.199 L 370.219 763.765 370.722 768.226 L 371.225 772.687 362.846 773.278 L 354.468 773.870 347.278 775.505 L 340.087 777.140 336.886 779.320 L 333.684 781.500 331.732 784.136 L 329.780 786.772 329.273 791.267 L 328.767 795.763 329.940 799.319 L 331.114 802.875 333.228 805.563 L 335.342 808.251 340.421 810.616 L 345.500 812.980 350.500 812.985 L 355.500 812.989 359.315 811.929 L 363.130 810.870 366.948 807.052 L 370.765 803.235 371.637 807.367 L 372.509 811.500 379.004 811.500 L 385.500 811.500 385.769 789.179 L 386.039 766.857 384.977 762.915 L 383.916 758.974 380.803 755.428 L 377.689 751.882 373.595 749.750 L 369.500 747.619 360 747.332 L 350.500 747.046 346.385 748.561 M 652.404 748.769 L 647.307 750.589 643.353 753.721 L 639.398 756.853 636.716 761.780 L 634.034 766.708 633.045 773.682 L 632.056 780.657 633.085 787.048 L 634.114 793.440 636.774 798.325 L 639.433 803.211 642.966 806.126 L 646.500 809.041 652 811.116 L 657.500 813.192 666 812.779 L 674.500 812.365 679.089 810.310 L 683.679 808.255 687.467 804.467 L 691.255 800.679 693.326 796.089 L 695.398 791.500 695.792 781.500 L 696.185 771.500 694.113 766 L 692.041 760.500 689 756.814 L 685.959 753.127 680.310 750.363 L 674.662 747.600 666.081 747.274 L 657.500 746.949 652.404 748.769 M 730.274 749.093 L 726.049 751.185 723.774 754.842 L 721.500 758.500 721.196 753.206 L 720.892 747.911 714.196 748.206 L 707.500 748.500 707.500 780 L 707.500 811.500 714.500 811.500 L 721.500 811.500 722 789.500 L 722.500 767.500 723.780 765.260 L 725.059 763.021 727.980 761.510 L 730.901 760 734.228 760 L 737.555 760 739.770 761.551 L 741.985 763.103 743.242 765.301 L 744.500 767.500 745 789.500 L 745.500 811.500 752.720 811.793 L 759.940 812.086 760.582 809.530 L 761.224 806.973 760.645 801.737 L 760.066 796.500 760.697 781.583 L 761.327 766.666 763.913 763.798 L 766.500 760.931 770.233 760.337 L 773.967 759.744 776.935 760.973 L 779.903 762.202 781.701 764.851 L 783.500 767.500 784 789.500 L 784.500 811.500 791.500 811.500 L 798.500 811.500 798.500 787.500 L 798.500 763.500 796 758.507 L 793.500 753.513 789.255 750.571 L 785.010 747.628 779.111 747.202 L 773.212 746.775 769.686 747.939 L 766.161 749.102 761.891 753.734 L 757.622 758.366 757.244 757.233 L 756.867 756.100 754.762 753.425 L 752.657 750.749 748.579 748.896 L 744.500 747.044 739.500 747.023 L 734.500 747.002 730.274 749.093 M 834.907 749.324 L 830.500 751.649 828.307 754.887 L 826.115 758.126 825.807 753.313 L 825.500 748.500 818.736 748.204 L 811.972 747.908 812.236 779.704 L 812.500 811.500 819.500 811.500 L 826.500 811.500 827 788.828 L 827.500 766.156 829.910 763.593 L 832.320 761.031 835.582 760.419 L 838.844 759.807 841.956 760.490 L 845.068 761.174 846.784 763.789 L 848.500 766.404 849 788.952 L 849.500 811.500 857 811.500 L 864.500 811.500 865 788.770 L 865.500 766.041 868.054 763.489 L 870.608 760.938 874.287 760.341 L 877.967 759.744 881.031 761.013 L 884.094 762.282 885.790 765.391 L 887.485 768.500 887.747 789 L 888.009 809.500 888.005 810.794 L 888 812.088 895.250 811.794 L 902.500 811.500 902.500 787.470 L 902.500 763.439 899.945 758.479 L 897.391 753.518 893.350 750.678 L 889.309 747.838 883.300 747.294 L 877.292 746.749 873.726 747.925 L 870.161 749.102 866.060 753.551 L 861.959 758 861.479 758 L 861 758 861 756.687 L 861 755.374 858.250 752.740 L 855.500 750.106 851.782 748.553 L 848.064 747 843.689 747 L 839.315 747 834.907 749.324 M 285.500 758.900 L 282.500 759.656 280.222 761.078 L 277.945 762.500 275.972 766.566 L 274 770.631 274 772.316 L 274 774 289.131 774 L 304.262 774 303.677 770.394 L 303.091 766.788 301.532 764.408 L 299.972 762.028 297.736 760.588 L 295.500 759.148 292 758.646 L 288.500 758.144 285.500 758.900 M 657 760.752 L 653.500 762.500 651.171 767.193 L 648.843 771.886 648.896 780.075 L 648.950 788.265 651.080 792.666 L 653.211 797.067 657.066 799.033 L 660.920 801 664.812 801 L 668.704 801 672.010 798.750 L 675.316 796.500 677.408 793.674 L 679.500 790.847 679.500 779.996 L 679.500 769.144 677.408 766.322 L 675.316 763.500 672.010 761.250 L 668.704 759 664.602 759.002 L 660.500 759.003 657 760.752 M 354.787 784.396 L 349.073 785.624 346.989 787.510 L 344.904 789.397 345.202 793.348 L 345.500 797.300 348.325 799.400 L 351.150 801.500 355.825 801.420 L 360.500 801.340 363.794 799.622 L 367.088 797.903 369.040 794.701 L 370.993 791.500 370.996 787.250 L 371 783 365.750 783.084 L 360.500 783.168 354.787 784.396" stroke="none" fill="#42a9fb" fill-rule="evenodd"/></svg>